HIERARCHY
ROOT hip
{
  OFFSET 0 0 0
  CHANNELS 6 Xposition Yposition Zposition Zrotation Yrotation Xrotation
  JOINT abdomen
  {
    OFFSET 0 20.6881 -0.73152
    CHANNELS 3 Zrotation Xrotation Yrotation
    JOINT chest
    {
      OFFSET 0 11.7043 -0.48768
      CHANNELS 3 Zrotation Xrotation Yrotation
      JOINT neck
      {
        OFFSET 0 22.1894 -2.19456
        CHANNELS 3 Zrotation Xrotation Yrotation
        JOINT head
        {
          OFFSET -0.24384 7.07133 1.2192
          CHANNELS 3 Zrotation Xrotation Yrotation
          JOINT leftEye
          {
            OFFSET 4.14528 8.04674 8.04672
            CHANNELS 3 Zrotation Xrotation Yrotation
            End Site
            {
              OFFSET 1 0 0
            }
          }
          JOINT rightEye
          {
            OFFSET -3.6576 8.04674 8.04672
            CHANNELS 3 Zrotation Xrotation Yrotation
            End Site
            {
              OFFSET 1 0 0
            }
          }
        }
      }
      JOINT rCollar
      {
        OFFSET -2.68224 19.2634 -4.8768
        CHANNELS 3 Zrotation Xrotation Yrotation
        JOINT rShldr
        {
          OFFSET -8.77824 -1.95073 1.46304
          CHANNELS 3 Zrotation Xrotation Yrotation
          JOINT rForeArm
          {
            OFFSET -28.1742 -1.7115 0.48768
            CHANNELS 3 Zrotation Xrotation Yrotation
            JOINT rHand
            {
              OFFSET -22.5879 0.773209 7.07136
              CHANNELS 3 Zrotation Xrotation Yrotation
              JOINT rThumb1
              {
                OFFSET -1.2192 -0.487915 3.41376
                CHANNELS 3 Zrotation Xrotation Yrotation
                JOINT rThumb2
                {
                  OFFSET -3.37035 -0.52449 3.41376
                  CHANNELS 3 Zrotation Xrotation Yrotation
                  End Site
                  {
                    OFFSET -1.78271 -1.18214 1.43049
                  }
                }
              }
              JOINT rIndex1
              {
                OFFSET -7.75947 0.938293 5.60832
                CHANNELS 3 Zrotation Xrotation Yrotation
                JOINT rIndex2
                {
                  OFFSET -2.54057 -0.884171 1.56538
                  CHANNELS 3 Zrotation Xrotation Yrotation
                  End Site
                  {
                    OFFSET -1.62519 -0.234802 1.16502
                  }
                }
              }
              JOINT rMid1
              {
                OFFSET -8.24714 1.18213 3.41376
                CHANNELS 3 Zrotation Xrotation Yrotation
                JOINT rMid2
                {
                  OFFSET -3.10165 -0.590103 1.0647
                  CHANNELS 3 Zrotation Xrotation Yrotation
                  End Site
                  {
                    OFFSET -2.48547 -0.328903 0.83742
                  }
                }
              }
              JOINT rRing1
              {
                OFFSET -8.82822 0.546677 1.51678
                CHANNELS 3 Zrotation Xrotation Yrotation
                JOINT rRing2
                {
                  OFFSET -2.60934 -0.819778 -0.0198488
                  CHANNELS 3 Zrotation Xrotation Yrotation
                  End Site
                  {
                    OFFSET -2.33842 -0.294052 0.168128
                  }
                }
              }
              JOINT rPinky1
              {
                OFFSET -8.27202 -0.0477905 -0.4584
                CHANNELS 3 Zrotation Xrotation Yrotation
                JOINT rPinky2
                {
                  OFFSET -1.82734 -0.647385 -0.700984
                  CHANNELS 3 Zrotation Xrotation Yrotation
                  End Site
                  {
                    OFFSET -1.69225 -0.51767 -0.607171
                  }
                }
              }
            }
          }
        }
      }
      JOINT lCollar
      {
        OFFSET 2.68224 19.2634 -4.8768
        CHANNELS 3 Zrotation Xrotation Yrotation
        JOINT lShldr
        {
          OFFSET 8.77824 -1.95073 1.46304
          CHANNELS 3 Zrotation Xrotation Yrotation
          JOINT lForeArm
          {
            OFFSET 28.1742 -1.7115 0.48768
            CHANNELS 3 Zrotation Xrotation Yrotation
            JOINT lHand
            {
              OFFSET 22.5879 0.773209 7.07136
              CHANNELS 3 Zrotation Xrotation Yrotation
              JOINT lThumb1
              {
                OFFSET 1.2192 -0.487915 3.41376
                CHANNELS 3 Zrotation Xrotation Yrotation
                JOINT lThumb2
                {
                  OFFSET 3.37035 -0.52449 3.41376
                  CHANNELS 3 Zrotation Xrotation Yrotation
                  End Site
                  {
                    OFFSET 1.78271 -1.18214 1.43049
                  }
                }
              }
              JOINT lIndex1
              {
                OFFSET 7.75947 0.938293 5.60832
                CHANNELS 3 Zrotation Xrotation Yrotation
                JOINT lIndex2
                {
                  OFFSET 2.54057 -0.884171 1.56538
                  CHANNELS 3 Zrotation Xrotation Yrotation
                  End Site
                  {
                    OFFSET 1.62519 -0.234802 1.16502
                  }
                }
              }
              JOINT lMid1
              {
                OFFSET 8.24714 1.18213 3.41376
                CHANNELS 3 Zrotation Xrotation Yrotation
                JOINT lMid2
                {
                  OFFSET 3.10165 -0.590103 1.0647
                  CHANNELS 3 Zrotation Xrotation Yrotation
                  End Site
                  {
                    OFFSET 2.48547 -0.328903 0.83742
                  }
                }
              }
              JOINT lRing1
              {
                OFFSET 8.82822 0.546677 1.51678
                CHANNELS 3 Zrotation Xrotation Yrotation
                JOINT lRing2
                {
                  OFFSET 2.60934 -0.819778 -0.0198488
                  CHANNELS 3 Zrotation Xrotation Yrotation
                  End Site
                  {
                    OFFSET 2.33842 -0.294052 0.168128
                  }
                }
              }
              JOINT lPinky1
              {
                OFFSET 8.27202 -0.0477905 -0.4584
                CHANNELS 3 Zrotation Xrotation Yrotation
                JOINT lPinky2
                {
                  OFFSET 1.82734 -0.647385 -0.700984
                  CHANNELS 3 Zrotation Xrotation Yrotation
                  End Site
                  {
                    OFFSET 1.69225 -0.51767 -0.607171
                  }
                }
              }
            }
          }
        }
      }
    }
  }
  JOINT rButtock
  {
    OFFSET -8.77824 4.35084 1.2192
    CHANNELS 3 Zrotation Xrotation Yrotation
    JOINT rThigh
    {
      OFFSET 0 -1.70687 -2.19456
      CHANNELS 3 Zrotation Xrotation Yrotation
      JOINT rShin
      {
        OFFSET 0 -36.8199 0.73152
        CHANNELS 3 Zrotation Xrotation Yrotation
        JOINT rFoot
        {
          OFFSET 0.73152 -45.1104 -5.12064
          CHANNELS 3 Zrotation Xrotation Yrotation
          End Site
          {
            OFFSET -1.1221 -3.69964 12.103
          }
        }
      }
    }
  }
  JOINT lButtock
  {
    OFFSET 8.77824 4.35084 1.2192
    CHANNELS 3 Zrotation Xrotation Yrotation
    JOINT lThigh
    {
      OFFSET 0 -1.70687 -2.19456
      CHANNELS 3 Zrotation Xrotation Yrotation
      JOINT lShin
      {
        OFFSET 0 -36.8199 0.73152
        CHANNELS 3 Zrotation Xrotation Yrotation
        JOINT lFoot
        {
          OFFSET -0.73152 -45.1104 -5.12064
          CHANNELS 3 Zrotation Xrotation Yrotation
          End Site
          {
            OFFSET 1.1221 -3.69964 12.103
          }
        }
      }
    }
  }
}
MOTION
Frames:	8
Frame Time:	0.00833333
83.9082 78.6197 -47.285 -170.532 2.9025 -171.872 0.826741 -3.06179 -11.397 4.49837 -10.7884 -2.64712 -2.33903 6.72946 -9.8835 7.45864 -20.5866 -17.7371 -0.0 0.0 0.0 -0.0 0.0 0.0 -1.71689e-13 -2.03407e-13 4.20282e-14 -9.61254 -12.1465 -4.64652 -15.9787 -8.66814 29.6258 -1.06687 27.9775 4.28137 -1.28111e-09 -9.28531e-11 -1.55419e-09 -2.24946e-09 -1.49344e-10 -2.65321e-09 -1.2811e-09 -9.28545e-11 -1.5542e-09 7.73091 5.47488 0.417314 -1.28111e-09 -9.28568e-11 -1.55419e-09 2.90554 0.965183 0.102902 -1.28109e-09 -9.28533e-11 -1.55419e-09 10.2786 0.731801 0.0259123 -1.28111e-09 -9.28493e-11 -1.55419e-09 2.22167 -0.733487 -0.20892 -1.71708e-13 -2.03406e-13 4.18046e-14 -8.19806 15.9389 -5.54304 16.7903 -9.44262 -31.3594 1.36981 31.258 -4.8938 -4.7102e-10 -4.38796e-09 -2.01895e-09 -8.64353e-10 -7.73509e-09 -3.47197e-09 -4.71025e-10 -4.38796e-09 -2.01894e-09 -7.73091 5.47488 -0.417314 -4.71021e-10 -4.38796e-09 -2.01894e-09 -2.90554 0.965183 -0.102902 -4.71028e-10 -4.38796e-09 -2.01894e-09 -10.2786 0.731801 -0.0259123 -4.71019e-10 -4.38796e-09 -2.01894e-09 -2.22167 -0.733487 0.20892 -2.03217e-16 0.0 -3.88251e-19 -26.712 -39.9484 -5.25759 -170.954 83.1061 172.327 2.39181 12.9625 -10.9691 2.03217e-16 0.0 3.88251e-19 6.37622 -21.7879 11.3394 0.171022 31.9684 -0.451491 0.467432 -9.95797 4.42891
83.5638 79.0574 -47.3328 -170.699 2.7702 -171.89 0.566777 -2.84722 -11.642 4.4281 -10.9421 -2.72719 -2.39266 6.63477 -9.93299 7.32187 -20.66 -17.8589 -0.0 0.0 0.0 -0.0 0.0 0.0 -1.50302e-13 -1.08641e-13 6.24867e-14 -10.9102 -12.5383 -4.40248 -16.3581 -9.02462 30.432 -1.03128 27.5514 4.20473 -1.15344e-09 -7.31486e-11 -1.10865e-09 -2.01809e-09 -1.18129e-10 -1.88733e-09 -1.15344e-09 -7.31506e-11 -1.10866e-09 7.73091 5.47488 0.417314 -1.15344e-09 -7.31523e-11 -1.10865e-09 2.90554 0.965183 0.102902 -1.15343e-09 -7.31493e-11 -1.10865e-09 10.2786 0.731801 0.0259123 -1.15345e-09 -7.31454e-11 -1.10865e-09 2.22167 -0.733487 -0.20892 -1.50339e-13 -1.08631e-13 6.22941e-14 -7.96695 16.1746 -5.27245 16.8794 -9.53053 -31.552 1.36779 31.2378 -4.88991 -2.972e-10 -3.03427e-09 -1.52149e-09 -5.5278e-10 -5.36592e-09 -2.61751e-09 -2.97206e-10 -3.03427e-09 -1.52148e-09 -7.73091 5.47488 -0.417314 -2.97201e-10 -3.03427e-09 -1.52149e-09 -2.90554 0.965183 -0.102902 -2.97208e-10 -3.03427e-09 -1.52149e-09 -10.2786 0.731801 -0.0259123 -2.97199e-10 -3.03427e-09 -1.52149e-09 -2.22167 -0.733487 0.20892 -2.03217e-16 0.0 -3.88251e-19 -27.3198 -42.4424 -5.97957 -174.135 78.6127 175.576 2.24939 12.1396 -11.092 2.03217e-16 0.0 3.88251e-19 5.80617 -20.9546 11.013 0.148181 30.4093 -0.390722 0.340815 -8.8943 4.04517
83.2304 79.4699 -47.3888 -170.869 2.6604 -171.9 0.31087 -2.64963 -11.8608 4.34139 -11.0998 -2.79948 -2.44576 6.53187 -9.96169 7.19507 -20.7041 -17.9377 -0.0 0.0 0.0 -0.0 0.0 0.0 -1.16863e-13 6.64996e-15 8.27495e-14 -12.1993 -12.9624 -4.15923 -16.7385 -9.39167 31.2491 -0.992364 27.0739 4.11959 -1.0139e-09 -1.49467e-11 -5.3667e-10 -1.76353e-09 -2.14427e-11 -9.03135e-10 -1.0139e-09 -1.49492e-11 -5.36674e-10 7.73091 5.47488 0.417314 -1.0139e-09 -1.49502e-11 -5.36672e-10 2.90554 0.965183 0.102902 -1.01389e-09 -1.49478e-11 -5.36672e-10 10.2786 0.731801 0.0259123 -1.01391e-09 -1.49441e-11 -5.36671e-10 2.22167 -0.733487 -0.20892 -1.16921e-13 6.6683e-15 8.25849e-14 -7.71472 16.4102 -5.03301 16.9675 -9.61806 -31.7429 1.36618 31.2217 -4.88679 -4.45221e-11 -1.1103e-09 -8.37839e-10 -1.00572e-10 -1.99966e-09 -1.44367e-09 -4.45287e-11 -1.1103e-09 -8.37836e-10 -7.73091 5.47488 -0.417314 -4.45218e-11 -1.1103e-09 -8.37834e-10 -2.90554 0.965183 -0.102902 -4.45293e-11 -1.1103e-09 -8.37838e-10 -10.2786 0.731801 -0.0259123 -4.45202e-11 -1.1103e-09 -8.37835e-10 -2.22167 -0.733487 0.20892 -2.03217e-16 0.0 -3.88251e-19 -27.9907 -44.9592 -6.76203 -175.462 74.2884 176.978 2.07615 11.3506 -10.9499 2.03217e-16 0.0 3.88251e-19 5.28278 -20.1467 10.7717 0.126992 28.9128 -0.335958 0.223051 -7.84316 3.6162
82.9064 79.8514 -47.4537 -171.053 2.5753 -171.907 0.0309385 -2.46019 -12.0557 4.23854 -11.2603 -2.86546 -2.49246 6.44198 -9.97482 7.07119 -20.7392 -17.9858 -0.0 0.0 0.0 -0.0 0.0 0.0 -8.38319e-14 9.69955e-14 9.86469e-14 -13.4582 -13.4455 -3.89135 -17.1181 -9.76896 32.0704 -0.951546 26.5642 4.02937 -8.83344e-10 6.17171e-11 4.44991e-11 -1.52515e-09 1.07032e-10 9.7752e-11 -8.83339e-10 6.17147e-11 4.4496e-11 7.73091 5.47488 0.417314 -8.83344e-10 6.1714e-11 4.4496e-11 2.90554 0.965183 0.102902 -8.83329e-10 6.17157e-11 4.44976e-11 10.2786 0.731801 0.0259123 -8.83349e-10 6.17191e-11 4.44991e-11 2.22167 -0.733487 -0.20892 -8.38983e-14 9.7018e-14 9.84978e-14 -7.44812 16.644 -4.82299 17.0553 -9.70583 -31.9337 1.36498 31.2097 -4.88449 1.92043e-10 7.67322e-10 -1.81775e-10 3.23344e-10 1.28632e-09 -3.16984e-10 1.92036e-10 7.6732e-10 -1.81775e-10 -7.73091 5.47488 -0.417314 1.92044e-10 7.67318e-10 -1.81772e-10 -2.90554 0.965183 -0.102902 1.92036e-10 7.67318e-10 -1.81776e-10 -10.2786 0.731801 -0.0259123 1.92046e-10 7.67322e-10 -1.81772e-10 -2.22167 -0.733487 0.20892 -2.03217e-16 0.0 -3.88251e-19 -28.7355 -47.4887 -7.59371 -176.181 70.2005 177.774 1.8815 10.5797 -10.5349 2.03217e-16 0.0 3.88251e-19 4.77438 -19.3603 10.6211 0.108727 27.4981 -0.288547 0.120035 -6.83999 3.15857
82.5863 80.1981 -47.5273 -171.256 2.504 -171.915 -0.26517 -2.28757 -12.2178 4.11491 -11.4247 -2.9228 -2.53928 6.37354 -9.97386 6.96147 -20.7773 -18.0023 -0.0 0.0 0.0 -0.0 0.0 0.0 -5.37917e-14 1.56868e-13 1.13064e-13 -14.6907 -13.9786 -3.60406 -17.4973 -10.1569 32.8998 -0.90929 26.0223 3.9343 -7.42755e-10 1.62628e-10 7.61051e-10 -1.26805e-09 2.7641e-10 1.33358e-09 -7.4275e-10 1.62626e-10 7.61046e-10 7.73091 5.47488 0.417314 -7.42754e-10 1.62626e-10 7.61045e-10 2.90554 0.965183 0.102902 -7.42741e-10 1.62626e-10 7.61048e-10 10.2786 0.731801 0.0259123 -7.4276e-10 1.62629e-10 7.6105e-10 2.22167 -0.733487 -0.20892 -5.3848e-14 1.56888e-13 1.12912e-13 -7.16139 16.8842 -4.64331 17.1438 -9.79482 -32.1263 1.36415 31.2014 -4.88288 4.3543e-10 2.85659e-09 5.22669e-10 7.60373e-10 4.94341e-09 8.93335e-10 4.35422e-10 2.85658e-09 5.22668e-10 -7.73091 5.47488 -0.417314 4.35429e-10 2.85658e-09 5.2267e-10 -2.90554 0.965183 -0.102902 4.35421e-10 2.85658e-09 5.22666e-10 -10.2786 0.731801 -0.0259123 4.35434e-10 2.85659e-09 5.22669e-10 -2.22167 -0.733487 0.20892 -2.03217e-16 0.0 -3.88251e-19 -29.593 -50.0471 -8.49858 -176.643 66.3432 178.322 1.66388 9.80049 -9.74002 2.03217e-16 0.0 3.88251e-19 4.29375 -18.6094 10.5715 0.0915895 26.1775 -0.248157 0.0298718 -5.88569 2.65772
82.2671 80.5083 -47.6127 -171.488 2.4428 -171.932 -0.56835 -2.13268 -12.349 3.97201 -11.5931 -2.97163 -2.58653 6.31428 -9.956 6.8655 -20.8055 -17.982 -0.0 0.0 0.0 -0.0 0.0 0.0 -2.03443e-14 2.0832e-13 1.26893e-13 -15.9034 -14.5528 -3.30656 -17.8752 -10.5538 33.7396 -0.865527 25.4396 3.83321 -5.89201e-10 2.94762e-10 1.62303e-09 -9.86353e-10 4.98623e-10 2.82121e-09 -5.89198e-10 2.94762e-10 1.62303e-09 7.73091 5.47488 0.417314 -5.89201e-10 2.94761e-10 1.62302e-09 2.90554 0.965183 0.102902 -5.89189e-10 2.9476e-10 1.62303e-09 10.2786 0.731801 0.0259123 -5.89206e-10 2.94762e-10 1.62303e-09 2.22167 -0.733487 -0.20892 -2.038e-14 2.08332e-13 1.26725e-13 -6.8528 17.1288 -4.4946 17.2322 -9.88438 -32.3195 1.36368 31.1967 -4.88198 7.20203e-10 5.34556e-09 1.34519e-09 1.27179e-09 9.29996e-09 2.3066e-09 7.20193e-10 5.34554e-09 1.34519e-09 -7.73091 5.47488 -0.417314 7.20199e-10 5.34554e-09 1.34518e-09 -2.90554 0.965183 -0.102902 7.20191e-10 5.34554e-09 1.34518e-09 -10.2786 0.731801 -0.0259123 7.20208e-10 5.34556e-09 1.34518e-09 -2.22167 -0.733487 0.20892 -2.03217e-16 0.0 -3.88251e-19 -30.5744 -52.6312 -9.50493 -176.963 62.6951 178.74 1.44369 9.02185 -8.60819 2.03217e-16 0.0 3.88251e-19 3.84338 -17.8926 10.614 0.0743289 24.9382 -0.213502 -0.0469466 -4.9642 2.11051
81.9432 80.7798 -47.713 -171.759 2.3823 -171.964 -0.904312 -1.97511 -12.4682 3.81937 -11.763 -3.01702 -2.61903 6.25436 -9.92003 6.75858 -20.8066 -17.9305 -0.0 0.0 0.0 -0.0 0.0 0.0 1.75258e-14 2.47248e-13 1.32972e-13 -17.0768 -15.1949 -2.97891 -18.2488 -10.957 34.5811 -0.820669 24.8226 3.72725 -4.67663e-10 4.39871e-10 2.33898e-09 -7.63025e-10 7.44214e-10 4.05694e-09 -4.67661e-10 4.39872e-10 2.33896e-09 7.73091 5.47488 0.417314 -4.67663e-10 4.39871e-10 2.33896e-09 2.90554 0.965183 0.102902 -4.67652e-10 4.39869e-10 2.33897e-09 10.2786 0.731801 0.0259123 -4.67667e-10 4.3987e-10 2.33897e-09 2.22167 -0.733487 -0.20892 1.751e-14 2.47253e-13 1.32786e-13 -6.53506 17.3613 -4.37475 17.319 -9.97285 -32.5097 1.36372 31.1971 -4.88205 9.68837e-10 7.5127e-09 2.06258e-09 1.71848e-09 1.30941e-08 3.53904e-09 9.68826e-10 7.51268e-09 2.06258e-09 -7.73091 5.47488 -0.417314 9.68831e-10 7.51268e-09 2.06257e-09 -2.90554 0.965183 -0.102902 9.68823e-10 7.51268e-09 2.06257e-09 -10.2786 0.731801 -0.0259123 9.68843e-10 7.5127e-09 2.06257e-09 -2.22167 -0.733487 0.20892 -2.03217e-16 0.0 -3.88251e-19 -31.6406 -55.2035 -10.6026 -177.182 59.293 179.053 1.2519 8.28411 -7.35347 2.03217e-16 0.0 3.88251e-19 3.37721 -17.1823 10.7264 0.0589829 23.7627 -0.184525 -0.104817 -4.08582 1.55012
81.6103 81.0141 -47.8309 -172.08 2.316 -172.022 -1.29837 -1.79453 -12.5948 3.66644 -11.9318 -3.06409 -2.62156 6.18393 -9.86477 6.61586 -20.7636 -17.853 -0.0 0.0 0.0 -0.0 0.0 0.0 6.08341e-14 2.69552e-13 1.24141e-13 -18.1898 -15.9313 -2.60073 -18.6153 -11.3639 35.4157 -0.775043 24.1778 3.61754 -4.23117e-10 5.79705e-10 2.61741e-09 -6.81024e-10 9.83726e-10 4.53706e-09 -4.23117e-10 5.79708e-10 2.61739e-09 7.73091 5.47488 0.417314 -4.23118e-10 5.79706e-10 2.61739e-09 2.90554 0.965183 0.102902 -4.23108e-10 5.79705e-10 2.6174e-09 10.2786 0.731801 0.0259123 -4.23122e-10 5.79705e-10 2.6174e-09 2.22167 -0.733487 -0.20892 6.08261e-14 2.69552e-13 1.23942e-13 -6.22077 17.565 -4.28167 17.4027 -10.0586 -32.6936 1.3644 31.2039 -4.88337 1.10381e-09 8.63648e-09 2.45164e-09 1.96132e-09 1.5064e-08 4.20689e-09 1.1038e-09 8.63646e-09 2.45164e-09 -7.73091 5.47488 -0.417314 1.1038e-09 8.63647e-09 2.45164e-09 -2.90554 0.965183 -0.102902 1.10379e-09 8.63647e-09 2.45163e-09 -10.2786 0.731801 -0.0259123 1.10381e-09 8.63649e-09 2.45163e-09 -2.22167 -0.733487 0.20892 -2.03217e-16 0.0 -3.88251e-19 -32.7434 -57.7275 -11.7741 -177.328 56.1739 179.273 1.10378 7.63271 -6.18725 2.03217e-16 0.0 3.88251e-19 2.85022 -16.4511 10.8871 0.0476742 22.6336 -0.161236 -0.140685 -3.26112 1.00949
